<svg id="Layer_1" data-name="Layer 1" xmlns="http://www.w3.org/2000/svg" viewBox="0 0 332.47 177.08"><defs><style>.cls-1{fill:#001f4e;}</style></defs><polygon class="cls-1" points="142.61 36.17 166.24 12.54 189.86 36.17 202.4 36.17 166.24 0 130.07 36.17 142.61 36.17"/><path class="cls-1" d="M135.51,145.87V98.64H150c15.46,0,23,7.76,23,23,0,15.85-8.42,24.27-23.94,24.27ZM149.65,138c9.87,0,14.28-5.6,14.28-16.19,0-10.12-4.28-15.25-13.35-15.25h-6V138Z" transform="translate(-62.61 -39.64)"/><path class="cls-1" d="M190,145.87V98.64h30.52v7.63H199.12v11.58h15.32v7.36H199.12v13h22.16v7.63Z" transform="translate(-62.61 -39.64)"/><path class="cls-1" d="M241.35,145.87V98.64h31.17v7.63h-22.1v11.58h15.92v7.36H250.42v20.66Z" transform="translate(-62.61 -39.64)"/><path class="cls-1" d="M297.91,145.87V127.19L283.05,98.64h9.8l9.54,19.67h.13l10.19-19.67h9.47L307,127.19v18.68Z" transform="translate(-62.61 -39.64)"/><path class="cls-1" d="M93,215.93v-4.34h-.13c-3.09,3.62-7,5.13-11.9,5.13-12.11,0-18.36-9.4-18.36-24.6,0-15.39,7.3-24.2,19.67-24.2,9.34,0,15.13,4.27,17.43,14l-8.22,1.57c-1.65-6.05-4.74-8.08-9.21-8.08-6.51,0-10.59,5.92-10.59,16.77,0,11.05,3.29,17.23,11.12,17.23,5.78,0,9.47-3.42,9.47-9.08a9.07,9.07,0,0,0-.07-1.31h-9.4v-6.58h17.36v23.48Z" transform="translate(-62.61 -39.64)"/><path class="cls-1" d="M147.53,215.93,138.91,197H130.1v18.94H121V168.71h16.12c12.49,0,18.35,4.6,18.35,13.61,0,6.18-3.22,10.13-8.22,12.17l10.32,21.44ZM137.2,189.62c3.42,0,9.15-.66,9.15-6.71,0-5.85-4.74-6.57-8.69-6.57H130.1v13.28Z" transform="translate(-62.61 -39.64)"/><path class="cls-1" d="M203.31,215.93l-3.42-12.43H184.63l-3.42,12.43h-9.14l14.2-47.22h12.3l14.28,47.22Zm-16.58-20h11.05l-5.46-19.74h-.13Z" transform="translate(-62.61 -39.64)"/><path class="cls-1" d="M237.29,215.93l-14.6-47.22h9.86l9.93,36.11h.14l11-36.11h9.67l-15.46,47.22Z" transform="translate(-62.61 -39.64)"/><path class="cls-1" d="M281.69,215.93V168.71h9.07v47.22Z" transform="translate(-62.61 -39.64)"/><path class="cls-1" d="M323.32,215.93V176.34H310.56v-7.63h34.67v7.63H332.4v39.59Z" transform="translate(-62.61 -39.64)"/><path class="cls-1" d="M370.81,215.93V197.25L356,168.71h9.8l9.54,19.66h.13l10.19-19.66h9.47l-15.19,28.54v18.68Z" transform="translate(-62.61 -39.64)"/></svg>