<?xml version="1.0" encoding="utf-8"?>
<!-- Generator: Adobe Illustrator 25.3.1, SVG Export Plug-In . SVG Version: 6.00 Build 0)  -->
<svg version="1.1" id="Layer_1" xmlns="http://www.w3.org/2000/svg" xmlns:xlink="http://www.w3.org/1999/xlink" x="0px" y="0px"
	 viewBox="0 0 495 599" style="enable-background:new 0 0 495 599;" xml:space="preserve">
<style type="text/css">
	.st0{fill:#FFFFFF;}
	.st1{fill:#E31837;}
</style>
<g>
	<path class="st0" d="M492.2,228.4c0-124.6-72.9-225.6-220.8-225.6c-150.1,0-224.8,101.3-214.6,223c-16.8,37-40.3,79.1-49.3,95.5
		c-15.7,28.6,5.9,38,5.9,38l37.7,16.4c0,0.3,0,0.5,0,0.8l1.9,80.2c0,32.6,26.4,59,59,59h81.2l3.7,14.2l0,0l0,0l9.9,38.3l0.1,0
		l5.3,20.2c1.3,5,6.5,8,11.5,6.6l239.9-67.6c4.8-1.4,7.7-6.3,6.4-11.2l-4.9-19.2l0,0l-11.2-43.6l0-0.1l0,0l-4.3-16.8
		c-8.6-32.9,6-75.7,16.3-100c3.2-6.1,6.2-12.4,8.9-18.9c0,0,0-0.1,0-0.1l0,0C485.9,290.1,492.2,260,492.2,228.4z"/>
	<g>
		<path class="st1" d="M217.4,83.2h99.3v76.2l-19.2,153.1h-61.4l-18.7-153.1V83.2z M220.9,353.7h92.6v81.9h-92.6V353.7z"/>
	</g>
</g>
</svg>
